<svg width="206" height="55" viewBox="0 0 206 55" fill="none" xmlns="http://www.w3.org/2000/svg">
<g clip-path="url(#clip0_111_158)">
<path d="M203.781 19.5285C205.293 19.5285 206.362 20.994 205.887 22.4142L203.707 28.9203L202.297 33.1218L201.717 34.8519C201.137 36.5854 200.026 38.037 198.602 39.057C197.174 40.0769 195.433 40.6617 193.587 40.6617H188.942H184.659C184.023 40.6617 183.573 40.0456 183.773 39.4468L184.888 36.0389C185.071 35.482 185.598 35.0991 186.193 35.0991H189.188C193.433 35.0991 193.183 34.8519 194.431 31.3918L194.983 29.5747C195.082 29.2475 194.832 28.9203 194.488 28.9203H187.297H182.11C181.161 28.9203 180.074 29.0003 179.142 29.7766C178.636 30.1978 178.284 30.7791 178.084 31.4057L173.34 45.7962C173.172 46.301 173.551 46.8161 174.086 46.8161H196.513C197.062 46.8161 197.455 47.3418 197.294 47.8604L196.618 50.0535L195.81 52.4693C195.303 53.9766 193.879 54.9965 192.276 54.9965H184.793H184.136H178.559H171.906H171.245H163.358C161.912 54.9965 160.889 53.5937 161.343 52.2326L162.074 50.0535L163.4 46.0991L164.645 42.3918L165.225 40.6617L167.169 34.8519L167.749 33.1218L169.16 28.9203C170.19 26.132 172.039 23.7997 174.381 22.1636C176.72 20.5206 179.554 19.5703 182.557 19.5354L183.137 19.5285H190.454H196.031H203.781Z" fill="#333333" fill-opacity="0.9"/>
<path d="M170.295 0L167.285 8.98449C166.955 9.96614 166.026 10.6275 164.982 10.6275H150.034C148.526 10.6275 147.186 11.5848 146.711 13.0016L144.528 19.525L141.377 28.9168L139.967 33.1184L139.387 34.8484L137.439 40.6582L136.859 42.3883L135.322 46.9763C134.707 48.8142 132.97 50.05 131.018 50.05H107.575C105.897 50.05 104.712 48.4244 105.24 46.8475L105.493 46.0921L106.738 42.3848L108.398 37.4418L109.266 34.8449L111.801 27.2842C113.356 22.6475 117.733 19.5215 122.667 19.5215H133.697L136.985 9.71899C138.93 3.91962 144.415 0 150.597 0H170.295ZM130.804 28.3981C131.039 27.6845 130.526 26.943 129.801 26.943H128.356C126.267 26.943 123.792 27.1275 122.15 28.3041C120.508 29.4772 119.71 31.6528 118.971 33.6788L118.37 35.5655L116.7 40.7975C116.668 40.888 116.657 40.975 116.657 41.062C116.657 41.5111 117.005 41.9009 117.463 41.9009H123.729C125.353 41.9009 126.791 40.8218 127.305 39.2206L128.472 35.569L129.073 33.6823L130.804 28.3981Z" fill="#333333" fill-opacity="0.9"/>
<path d="M160.562 19.5285C164.219 19.5285 163.238 21.0462 162.746 22.5187L160.597 28.9203L159.187 33.1218L158.607 34.8519L156.659 40.6617L156.079 42.3918L154.838 46.099L153.779 49.2563C153.621 49.7332 153.171 50.0535 152.664 50.0535H144.313C143.512 50.0535 142.942 49.2737 143.199 48.5218L144.011 46.099L145.256 42.3918L145.836 40.6617L147.784 34.8519L148.364 33.1218L149.774 28.9203L152.401 21.088C152.714 20.1551 153.589 19.5285 154.581 19.5285C156.163 19.5285 158.6 19.5285 160.562 19.5285Z" fill="#333333" fill-opacity="0.9"/>
<path d="M106.949 27.4791C107.033 28.0361 106.977 28.5861 106.773 29.1291L101.041 45.7509H101.091C100.922 46.3253 100.612 46.8649 100.169 47.3731C99.7263 47.8813 99.2235 48.3339 98.6573 48.7411C98.0947 49.1449 97.5145 49.4687 96.9168 49.7054C96.319 49.9421 95.7669 50.0604 95.2535 50.0604H72.4748C71.8946 50.0604 71.3813 49.9351 70.9382 49.681C70.4951 49.4269 70.1259 49.0788 69.8376 48.6402C69.5493 48.2016 69.3594 47.7142 69.275 47.1712C69.1906 46.6282 69.2328 46.0747 69.4051 45.4968L75.2422 28.875H75.1894C75.3582 28.3354 75.6676 27.8063 76.1107 27.2807C76.5538 26.7551 77.0496 26.2921 77.5981 25.8848C78.1431 25.481 78.7128 25.1573 79.3106 24.9206C79.9083 24.6873 80.4639 24.5655 80.9773 24.5655H103.809C104.322 24.5655 104.804 24.7013 105.268 24.9693C105.729 25.2373 106.105 25.5854 106.393 26.0066C106.675 26.4348 106.864 26.9256 106.949 27.4791ZM96.9519 34.1209C97.293 33.1392 96.5581 32.1158 95.5102 32.1158H83.2312C82.5807 32.1158 82.0041 32.5266 81.7896 33.1358C81.2762 34.5908 80.8015 35.9797 80.3584 37.313C80.0173 38.3399 79.6516 39.4016 79.2684 40.5016C78.9273 41.4832 79.6657 42.5066 80.7136 42.5066H92.9925C93.6431 42.5066 94.2197 42.0959 94.4342 41.4867C94.9441 40.0316 95.4223 38.6427 95.8654 37.313C96.21 36.2861 96.5722 35.2209 96.9519 34.1209Z" fill="#333333" fill-opacity="0.9"/>
<path d="M71.7399 27.4582C71.8243 28.0152 71.7681 28.5652 71.5641 29.1082L65.8325 45.7301H65.8817C65.713 46.3044 65.4035 46.844 64.9605 47.3522C64.5174 47.8604 64.0146 48.313 63.4485 48.7203C62.8858 49.124 62.3056 49.4478 61.7079 49.6845C61.1101 49.9212 60.558 50.0396 60.0446 50.0396C58.9581 50.0396 57.8681 50.0396 56.785 50.0396C54.3447 50.0396 51.9044 50.0396 49.464 50.0396C45.4625 50.0396 41.4539 50.1022 37.4523 50.0152C36.8053 50.0013 36.2392 49.9316 35.666 49.6079C34.1716 48.769 34.0555 47.199 34.4564 45.7161C35.3882 42.2769 36.6611 38.9282 37.7934 35.5481C38.2716 34.2427 38.6795 32.9095 39.1226 31.5867C39.6184 30.1038 39.8645 28.4956 40.9053 27.2633C41.3484 26.7377 41.8442 26.2747 42.3927 25.8674C42.9378 25.4636 43.5074 25.1399 44.1052 24.9032C44.703 24.6699 45.2585 24.5481 45.7719 24.5481H68.6034C69.1168 24.5481 69.5985 24.6839 70.0626 24.9519C70.5233 25.2199 70.8995 25.568 71.1879 25.9892C71.4692 26.4104 71.6555 26.9013 71.7399 27.4582ZM61.7466 34.1C62.0876 33.1184 61.3527 32.0949 60.3049 32.0949H48.0259C47.3754 32.0949 46.7987 32.5057 46.5842 33.1149C46.0708 34.5699 45.5961 35.9589 45.153 37.2921C44.812 38.319 44.4463 39.3807 44.063 40.4807C43.7219 41.4623 44.4603 42.4858 45.5082 42.4858H57.7872C58.4377 42.4858 59.0144 42.075 59.2289 41.4658C59.7387 40.0108 60.2169 38.6218 60.66 37.2921C61.0011 36.2617 61.3633 35.2 61.7466 34.1Z" fill="#333333" fill-opacity="0.9"/>
<path d="M60.6776 0L57.8012 8.58418C57.3934 9.80601 56.2365 10.631 54.9354 10.631H40.1915C39.5094 10.631 38.8624 10.8468 38.3349 11.2228C37.8039 11.6022 37.396 12.1383 37.178 12.7788L34.917 19.5285L31.7664 28.9203L29.7797 34.8519L28.9077 37.4487L27.2515 42.3918L25.9715 46.2174C25.2015 48.5079 23.0389 50.057 20.5986 50.057H20.465H0L3.80466 40.0839C4.26529 38.8725 5.43974 38.0684 6.74782 38.0684H15.732C16.8889 38.0684 17.9332 37.3722 18.3622 36.307L18.953 34.8519L20.9397 28.9203L21.2421 28.0222L24.0903 19.5285L27.0757 10.631L27.5468 9.22816L27.5609 9.18987C29.6566 3.67943 34.9909 0 40.9792 0H60.6776Z" fill="#333333" fill-opacity="0.9"/>
</g>
<defs>
<clipPath id="clip0_111_158">
<rect width="206" height="55" fill="white"/>
</clipPath>
</defs>
</svg>
